<svg width="120" height="120" viewBox="0 0 120 120" fill="none" xmlns="http://www.w3.org/2000/svg">
  <rect width="120" height="120" rx="30" fill="#0B1120"/>
  <rect x="11" y="11" width="98" height="98" rx="24" fill="url(#paint0_linear_1_2)" fill-opacity="0.12" stroke="url(#paint1_linear_1_2)"/>
  <path d="M33 82V38H47.5C58.5 38 66 44.8 66 54.6C66 64.3 58.5 71.2 47.5 71.2H42.2V82H33ZM42.2 63.1H46.8C52.6 63.1 56.6 59.9 56.6 54.6C56.6 49.2 52.6 46.1 46.8 46.1H42.2V63.1Z" fill="white"/>
  <path d="M69 82L86.7 38H94.6L77 82H69Z" fill="#A5B4FC"/>
  <circle cx="86" cy="82" r="7" fill="#22C55E"/>
  <defs>
    <linearGradient id="paint0_linear_1_2" x1="21" y1="13" x2="100" y2="106" gradientUnits="userSpaceOnUse">
      <stop stop-color="#6366F1"/>
      <stop offset="0.55" stop-color="#8B5CF6"/>
      <stop offset="1" stop-color="#06B6D4"/>
    </linearGradient>
    <linearGradient id="paint1_linear_1_2" x1="17" y1="11" x2="101" y2="109" gradientUnits="userSpaceOnUse">
      <stop stop-color="#818CF8"/>
      <stop offset="1" stop-color="#22D3EE"/>
    </linearGradient>
  </defs>
</svg>
