<svg width="1200" height="630" viewBox="0 0 1200 630" fill="none" xmlns="http://www.w3.org/2000/svg">
  <rect width="1200" height="630" rx="36" fill="#0B1120"/>
  <circle cx="217" cy="117" r="220" fill="#6366F1" fill-opacity="0.22"/>
  <circle cx="1045" cy="184" r="190" fill="#06B6D4" fill-opacity="0.16"/>
  <circle cx="802" cy="618" r="230" fill="#8B5CF6" fill-opacity="0.18"/>
  <rect x="70" y="72" width="1060" height="486" rx="28" fill="url(#paint0_linear_2_4)" fill-opacity="0.08" stroke="url(#paint1_linear_2_4)"/>
  <g filter="url(#filter0_d_2_4)">
    <rect x="120" y="135" width="130" height="130" rx="32" fill="#0F172A"/>
    <path d="M158 224V174H196.4C206.8 174 214 180.4 214 189.6C214 198.7 206.8 205.2 196.4 205.2H168.6V224H158ZM168.6 196.1H194.5C200.1 196.1 204 193.3 204 189.6C204 185.8 200.1 183.1 194.5 183.1H168.6V196.1Z" fill="white"/>
  </g>
  <text x="296" y="236" fill="white" font-family="Plus Jakarta Sans, Inter, sans-serif" font-size="74" font-weight="800" letter-spacing="-2.4">
    KA-Launchly
  </text>
  <text x="298" y="312" fill="#CBD5E1" font-family="Plus Jakarta Sans, Inter, sans-serif" font-size="32" font-weight="500">
    Premium Startup &amp; SaaS Website Template
  </text>
  <rect x="296" y="362" width="640" height="68" rx="34" fill="url(#paint2_linear_2_4)"/>
  <text x="332" y="406" fill="white" font-family="Plus Jakarta Sans, Inter, sans-serif" font-size="26" font-weight="700">
    30+ Pages • Dark/Light Mode • TailwindCSS • Vanilla JS
  </text>
  <rect x="298" y="470" width="186" height="16" rx="8" fill="#334155"/>
  <rect x="298" y="505" width="410" height="16" rx="8" fill="#1E293B"/>
  <rect x="740" y="470" width="288" height="64" rx="20" fill="#111827" stroke="#334155"/>
  <rect x="765" y="492" width="98" height="20" rx="10" fill="#6366F1"/>
  <rect x="878" y="492" width="126" height="20" rx="10" fill="#0F766E"/>
  <defs>
    <filter id="filter0_d_2_4" x="98" y="117" width="168" height="168" filterUnits="userSpaceOnUse" color-interpolation-filters="sRGB">
      <feFlood flood-opacity="0" result="BackgroundImageFix"/>
      <feColorMatrix in="SourceAlpha" type="matrix" values="0 0 0 0 0 0 0 0 0 0 0 0 0 0 0 0 0 0 127 0" result="hardAlpha"/>
      <feOffset dy="6"/>
      <feGaussianBlur stdDeviation="11"/>
      <feComposite in2="hardAlpha" operator="out"/>
      <feColorMatrix type="matrix" values="0 0 0 0 0.0235294 0 0 0 0 0.0627451 0 0 0 0 0.152941 0 0 0 0.4 0"/>
      <feBlend mode="normal" in2="BackgroundImageFix" result="effect1_dropShadow_2_4"/>
      <feBlend mode="normal" in="SourceGraphic" in2="effect1_dropShadow_2_4" result="shape"/>
    </filter>
    <linearGradient id="paint0_linear_2_4" x1="110" y1="91" x2="1044" y2="537" gradientUnits="userSpaceOnUse">
      <stop stop-color="#6366F1"/>
      <stop offset="0.55" stop-color="#0F172A"/>
      <stop offset="1" stop-color="#06B6D4"/>
    </linearGradient>
    <linearGradient id="paint1_linear_2_4" x1="132" y1="99" x2="1126" y2="574" gradientUnits="userSpaceOnUse">
      <stop stop-color="#818CF8"/>
      <stop offset="0.48" stop-color="#334155"/>
      <stop offset="1" stop-color="#22D3EE"/>
    </linearGradient>
    <linearGradient id="paint2_linear_2_4" x1="304" y1="366" x2="913" y2="433" gradientUnits="userSpaceOnUse">
      <stop stop-color="#6366F1"/>
      <stop offset="0.54" stop-color="#8B5CF6"/>
      <stop offset="1" stop-color="#06B6D4"/>
    </linearGradient>
  </defs>
</svg>
